<svg fill="none" height="20" viewBox="0 0 20 20" width="20" xmlns="http://www.w3.org/2000/svg"><g fill="#212121"><path d="m6.78361 2.82643c.25463-.50666.77321-.82643 1.34026-.82643h3.76423c.5682 0 1.0876.32106 1.3417.8293l.5849 1.1701h1.6899c1.3808 0 2.5 1.11929 2.5 2.5v3.7616c-.9516-.78763-2.1728-1.261-3.5047-1.261-.2087 0-.4147.01163-.6173.03426-.432-1.74258-2.0065-3.03426-3.88266-3.03426-2.20914 0-4 1.79086-4 4 0 1.8762 1.29168 3.4506 3.03426 3.8826-.02263.2027-.03426.4087-.03426.6174 0 .9002.21628 1.7499.59971 2.5h-5.09501c-1.38071 0-2.5-1.1193-2.5-2.5v-8.0006c0-1.38072 1.11929-2.5 2.5-2.5h1.68948z"/><path d="m9.99994 7c1.39276 0 2.56386.94909 2.90176 2.23581-1.7523.53131-3.13464 1.91369-3.66595 3.66599-1.28672-.3379-2.23581-1.509-2.23581-2.9018 0-1.65685 1.34314-3 3-3z"/><path d="m18.9999 14.5c0 2.4853-2.0147 4.5-4.5 4.5-2.4852 0-4.49996-2.0147-4.49996-4.5s2.01476-4.5 4.49996-4.5c2.4853 0 4.5 2.0147 4.5 4.5zm-4-2c0-.2761-.2238-.5-.5-.5-.2761 0-.5.2239-.5.5v1.5h-1.5c-.2761 0-.5.2239-.5.5s.2239.5.5.5h1.5v1.5c0 .2761.2239.5.5.5.2762 0 .5-.2239.5-.5v-1.5h1.5c.2762 0 .5-.2239.5-.5s-.2238-.5-.5-.5h-1.5z"/></g></svg>